<svg xmlns="http://www.w3.org/2000/svg" viewBox="0 0 286 168" font-family="HighNunito"><path d="M43 150V18M93 150V18M143 150V18M193 150V18M243 150V18M18 150H268M18 128H268M18 106H268M18 84H268M18 62H268M18 40H268M18 18H268" stroke="#E6DACB" stroke-width="1" fill="none"/><line x1="12" y1="106" x2="278" y2="106" stroke="#6A5B50" stroke-width="1.6" stroke-linecap="round"/><path d="M278 106 L271.6 108.7 L271.6 103.3 Z" fill="#6A5B50" stroke="#6A5B50" stroke-width="1" stroke-linejoin="round" stroke-linecap="round"/><text x="274" y="99" font-size="13" text-anchor="middle" fill="#6A5B50" font-weight="800" font-style="italic">x</text><line x1="143" y1="156" x2="143" y2="8" stroke="#6A5B50" stroke-width="1.6" stroke-linecap="round"/><path d="M143 8 L145.7 14.4 L140.3 14.4 Z" fill="#6A5B50" stroke="#6A5B50" stroke-width="1" stroke-linejoin="round" stroke-linecap="round"/><text x="154" y="16" font-size="13" text-anchor="middle" fill="#6A5B50" font-weight="800" font-style="italic">y</text><text x="43" y="120" font-size="10.5" text-anchor="middle" fill="#6A5B50" font-weight="600">−2</text><text x="93" y="120" font-size="10.5" text-anchor="middle" fill="#6A5B50" font-weight="600">−1</text><text x="193" y="120" font-size="10.5" text-anchor="middle" fill="#6A5B50" font-weight="600">1</text><text x="243" y="120" font-size="10.5" text-anchor="middle" fill="#6A5B50" font-weight="600">2</text><text x="138" y="154" font-size="10.5" text-anchor="end" fill="#6A5B50" font-weight="600">−2</text><text x="138" y="132" font-size="10.5" text-anchor="end" fill="#6A5B50" font-weight="600">−1</text><text x="138" y="88" font-size="10.5" text-anchor="end" fill="#6A5B50" font-weight="600">1</text><text x="138" y="66" font-size="10.5" text-anchor="end" fill="#6A5B50" font-weight="600">2</text><text x="138" y="44" font-size="10.5" text-anchor="end" fill="#6A5B50" font-weight="600">3</text><text x="138" y="22" font-size="10.5" text-anchor="end" fill="#6A5B50" font-weight="600">4</text><path d="M43 103v6M93 103v6M193 103v6M243 103v6M140 150h6M140 128h6M140 84h6M140 62h6M140 40h6M140 18h6" stroke="#6A5B50" stroke-width="1.4" fill="none"/><text x="138" y="119" font-size="10.5" text-anchor="end" fill="#6A5B50" font-weight="600">0</text><path d="M37.9 150 L40.9 136.7 L46.3 115.7 L51.6 97.7 L57 82.4 L62.4 69.8 L67.8 59.7 L73.1 51.8 L78.5 46.1 L83.9 42.3 L89.2 40.4 L94.6 40.1 L100 41.2 L105.4 43.7 L110.8 47.3 L116.1 51.9 L121.5 57.4 L126.9 63.5 L132.2 70 L137.6 76.9 L143 84 L148.4 91.1 L153.8 98 L159.1 104.5 L164.5 110.6 L169.9 116.1 L175.2 120.7 L180.6 124.3 L186 126.8 L191.4 127.9 L196.8 127.6 L202.1 125.7 L207.5 121.9 L212.9 116.2 L218.2 108.3 L223.6 98.2 L229 85.6 L234.4 70.3 L239.8 52.3 L245.1 31.3 L248.1 18" fill="none" stroke="#2F5F8F" stroke-width="2.8" stroke-linejoin="round" stroke-linecap="round"/><circle cx="43" cy="128" r="4.2" fill="#C24E32" stroke="#C24E32" stroke-width="2"/><circle cx="93" cy="40" r="4.2" fill="#2A7A6B" stroke="#2A7A6B" stroke-width="2"/><circle cx="143" cy="84" r="4.2" fill="#2A7A6B" stroke="#2A7A6B" stroke-width="2"/><circle cx="193" cy="128" r="4.2" fill="#C24E32" stroke="#C24E32" stroke-width="2"/><circle cx="243" cy="40" r="4.2" fill="#2A7A6B" stroke="#2A7A6B" stroke-width="2"/><text x="220.5" y="141.2" font-size="12" text-anchor="middle" fill="#3E3129" font-weight="800">f(1) &lt; 0 &lt; f(2)</text></svg>
