<svg xmlns="http://www.w3.org/2000/svg" viewBox="0 0 360 100" font-family="HighNunito"><g transform="translate(0.0,20)"><path d="M40 6 L10 74 L70 74 Z" fill="#E3EDF7" stroke="#2F5F8F" stroke-width="2" stroke-linejoin="round" stroke-linecap="round"/><line x1="40" y1="0" x2="40" y2="80" stroke="#C24E32" stroke-width="1.4" stroke-dasharray="6 4" stroke-linecap="round"/></g><text x="40" y="14" font-size="11.5" text-anchor="middle" fill="#3E3129" font-weight="800">1 axis</text><g transform="translate(88.0,20)"><rect x="10" y="18" width="76" height="46" fill="#E3EDF7" stroke="#2F5F8F" stroke-width="2"/><line x1="48" y1="8" x2="48" y2="74" stroke="#C24E32" stroke-width="1.4" stroke-dasharray="6 4" stroke-linecap="round"/><line x1="2" y1="41" x2="94" y2="41" stroke="#C24E32" stroke-width="1.4" stroke-dasharray="6 4" stroke-linecap="round"/></g><text x="136" y="14" font-size="11.5" text-anchor="middle" fill="#3E3129" font-weight="800">2 axes</text><g transform="translate(192.0,20)"><path d="M69.4 23 L40 6 L10.6 23 L10.6 57 L40 74 L69.4 57 Z" fill="#E3EDF7" stroke="#2F5F8F" stroke-width="2" stroke-linejoin="round" stroke-linecap="round"/><line x1="74.6" y1="20" x2="5.4" y2="60" stroke="#C24E32" stroke-width="1.2" stroke-dasharray="6 4" stroke-linecap="round"/><line x1="78" y1="40" x2="2" y2="40" stroke="#C24E32" stroke-width="1.2" stroke-dasharray="6 4" stroke-linecap="round"/><line x1="40" y1="0" x2="40" y2="80" stroke="#C24E32" stroke-width="1.2" stroke-dasharray="6 4" stroke-linecap="round"/><line x1="59" y1="7.1" x2="21" y2="72.9" stroke="#C24E32" stroke-width="1.2" stroke-dasharray="6 4" stroke-linecap="round"/><line x1="5.4" y1="20" x2="74.6" y2="60" stroke="#C24E32" stroke-width="1.2" stroke-dasharray="6 4" stroke-linecap="round"/><line x1="21" y1="7.1" x2="59" y2="72.9" stroke="#C24E32" stroke-width="1.2" stroke-dasharray="6 4" stroke-linecap="round"/></g><text x="232" y="14" font-size="11.5" text-anchor="middle" fill="#3E3129" font-weight="800">6 axes</text><g transform="translate(280.0,20)"><circle cx="40" cy="40" r="32" fill="#E3EDF7" stroke="#2F5F8F" stroke-width="2"/><line x1="78" y1="40" x2="2" y2="40" stroke="#C24E32" stroke-width="1.1" stroke-dasharray="6 4" stroke-linecap="round"/><line x1="72.9" y1="21" x2="7.1" y2="59" stroke="#C24E32" stroke-width="1.1" stroke-dasharray="6 4" stroke-linecap="round"/><line x1="59" y1="7.1" x2="21" y2="72.9" stroke="#C24E32" stroke-width="1.1" stroke-dasharray="6 4" stroke-linecap="round"/><line x1="40" y1="2" x2="40" y2="78" stroke="#C24E32" stroke-width="1.1" stroke-dasharray="6 4" stroke-linecap="round"/><line x1="21" y1="7.1" x2="59" y2="72.9" stroke="#C24E32" stroke-width="1.1" stroke-dasharray="6 4" stroke-linecap="round"/><line x1="7.1" y1="21" x2="72.9" y2="59" stroke="#C24E32" stroke-width="1.1" stroke-dasharray="6 4" stroke-linecap="round"/></g><text x="320" y="14" font-size="11.5" text-anchor="middle" fill="#3E3129" font-weight="800">infinitely many</text></svg>
