<svg xmlns="http://www.w3.org/2000/svg" viewBox="0 0 330 190" font-family="HighNunito"><path d="M70 30 L20 150 L120 150 Z" fill="#EAF1F8" stroke="none" stroke-width="0" stroke-linejoin="round" stroke-linecap="round"/><ellipse cx="70" cy="150" rx="50" ry="13" fill="#EAF1F8" stroke="none" stroke-width="0"/><line x1="70" y1="30" x2="20" y2="150" stroke="#3E3129" stroke-width="2" stroke-linecap="round"/><line x1="70" y1="30" x2="120" y2="150" stroke="#3E3129" stroke-width="2" stroke-linecap="round"/><path d="M20 150 A50 13 0 0 0 120 150" fill="none" stroke="#3E3129" stroke-width="2" stroke-linejoin="round" stroke-linecap="round"/><path d="M20 150 A50 13 0 0 1 120 150" fill="none" stroke="#3E3129" stroke-width="1.4" stroke-linejoin="round" stroke-linecap="round" stroke-dasharray="6 4"/><line x1="70" y1="30" x2="120" y2="150" stroke="#B86E12" stroke-width="3" stroke-linecap="round"/><line x1="70" y1="150" x2="120" y2="150" stroke="#2F5F8F" stroke-width="2" stroke-linecap="round"/><circle cx="70" cy="150" r="3" fill="#3E3129" stroke="#3E3129" stroke-width="2"/><text x="95" y="166" font-size="13" text-anchor="middle" fill="#2F5F8F" font-weight="800" font-style="italic">r</text><text x="102" y="84" font-size="13" fill="#B86E12" font-weight="800" font-style="italic">s</text><line x1="140" y1="95" x2="164" y2="95" stroke="#8A7F76" stroke-width="1.6" stroke-linecap="round"/><path d="M164 95 L157.6 97.7 L157.6 92.3 Z" fill="#8A7F76" stroke="#8A7F76" stroke-width="1" stroke-linejoin="round" stroke-linecap="round"/><path d="M250 30 L310.0 133.9 A120 120 0 0 1 190.0 133.9 Z" fill="#FCEFD9" stroke="#B86E12" stroke-width="2" stroke-linejoin="round" stroke-linecap="round"/><text x="250" y="100" font-size="14" text-anchor="middle" fill="#C24E32" font-weight="800">πrs</text><text x="250" y="172" font-size="12" text-anchor="middle" fill="#3E3129" font-weight="800">arc = 2πr</text><text x="214" y="70" font-size="13" text-anchor="end" fill="#B86E12" font-weight="800" font-style="italic">s</text></svg>
