<svg xmlns="http://www.w3.org/2000/svg" viewBox="0 0 340 150" font-family="HighNunito"><line x1="50" y1="50" x2="335.2" y2="50" stroke="#8A7F76" stroke-width="1.4" stroke-linecap="round"/><circle cx="165" cy="43" r="2.6" fill="#2F5F8F" stroke="#2F5F8F" stroke-width="2"/><circle cx="169.6" cy="43" r="2.6" fill="#2F5F8F" stroke="#2F5F8F" stroke-width="2"/><circle cx="174.2" cy="43" r="2.6" fill="#2F5F8F" stroke="#2F5F8F" stroke-width="2"/><circle cx="178.8" cy="43" r="2.6" fill="#2F5F8F" stroke="#2F5F8F" stroke-width="2"/><circle cx="192.6" cy="43" r="2.6" fill="#2F5F8F" stroke="#2F5F8F" stroke-width="2"/><circle cx="201.8" cy="43" r="2.6" fill="#2F5F8F" stroke="#2F5F8F" stroke-width="2"/><circle cx="206.4" cy="43" r="2.6" fill="#2F5F8F" stroke="#2F5F8F" stroke-width="2"/><circle cx="220.2" cy="43" r="2.6" fill="#2F5F8F" stroke="#2F5F8F" stroke-width="2"/><circle cx="220.2" cy="36" r="2.6" fill="#2F5F8F" stroke="#2F5F8F" stroke-width="2"/><circle cx="220.2" cy="29" r="2.6" fill="#2F5F8F" stroke="#2F5F8F" stroke-width="2"/><text x="8" y="54" font-size="12" fill="#2F5F8F" font-weight="800">Bank A</text><line x1="165" y1="59" x2="220.2" y2="59" stroke="#2F5F8F" stroke-width="2" stroke-linecap="round"/><line x1="50" y1="115" x2="335.2" y2="115" stroke="#8A7F76" stroke-width="1.4" stroke-linecap="round"/><circle cx="59.2" cy="108" r="2.6" fill="#C24E32" stroke="#C24E32" stroke-width="2"/><circle cx="114.4" cy="108" r="2.6" fill="#C24E32" stroke="#C24E32" stroke-width="2"/><circle cx="132.8" cy="108" r="2.6" fill="#C24E32" stroke="#C24E32" stroke-width="2"/><circle cx="151.2" cy="108" r="2.6" fill="#C24E32" stroke="#C24E32" stroke-width="2"/><circle cx="174.2" cy="108" r="2.6" fill="#C24E32" stroke="#C24E32" stroke-width="2"/><circle cx="220.2" cy="108" r="2.6" fill="#C24E32" stroke="#C24E32" stroke-width="2"/><circle cx="220.2" cy="101" r="2.6" fill="#C24E32" stroke="#C24E32" stroke-width="2"/><circle cx="257" cy="108" r="2.6" fill="#C24E32" stroke="#C24E32" stroke-width="2"/><circle cx="293.8" cy="108" r="2.6" fill="#C24E32" stroke="#C24E32" stroke-width="2"/><circle cx="326" cy="108" r="2.6" fill="#C24E32" stroke="#C24E32" stroke-width="2"/><text x="8" y="119" font-size="12" fill="#C24E32" font-weight="800">Bank B</text><line x1="59.2" y1="124" x2="326" y2="124" stroke="#C24E32" stroke-width="2" stroke-linecap="round"/><line x1="194.9" y1="14" x2="194.9" y2="135" stroke="#2A7A6B" stroke-width="1.6" stroke-dasharray="4 3" stroke-linecap="round"/><text x="194.9" y="148" font-size="11.5" text-anchor="middle" fill="#2A7A6B" font-weight="800">both means 7.15</text><text x="50" y="132" font-size="10.5" text-anchor="middle" fill="#8A7F76" font-weight="800">4</text><text x="142" y="132" font-size="10.5" text-anchor="middle" fill="#8A7F76" font-weight="800">6</text><text x="234" y="132" font-size="10.5" text-anchor="middle" fill="#8A7F76" font-weight="800">8</text><text x="326" y="132" font-size="10.5" text-anchor="middle" fill="#8A7F76" font-weight="800">10</text></svg>
