<svg xmlns="http://www.w3.org/2000/svg" viewBox="0 0 360 254">
<text x="180" y="16" text-anchor="middle" font-size="13" font-weight="bold" fill="#1b2b25" font-family="sans-serif">Alternation of generations</text>
<rect x="115.0" y="36" width="130" height="26" rx="8" fill="#ffffff" stroke="#2f7a3e" stroke-width="1.5"/>
<text x="180" y="54" text-anchor="middle" font-size="11" font-weight="bold" fill="#2f7a3e" font-family="sans-serif">SPOROPHYTE (2n)</text>
<rect x="245.0" y="116" width="110" height="26" rx="8" fill="#ffffff" stroke="#55665f" stroke-width="1.5"/>
<text x="300" y="134" text-anchor="middle" font-size="11" font-weight="bold" fill="#55665f" font-family="sans-serif">spores</text>
<rect x="115.0" y="196" width="130" height="26" rx="8" fill="#ffffff" stroke="#7a4b12" stroke-width="1.5"/>
<text x="180" y="214" text-anchor="middle" font-size="11" font-weight="bold" fill="#7a4b12" font-family="sans-serif">GAMETOPHYTE (n)</text>
<rect x="5.0" y="116" width="110" height="26" rx="8" fill="#ffffff" stroke="#55665f" stroke-width="1.5"/>
<text x="60" y="134" text-anchor="middle" font-size="11" font-weight="bold" fill="#55665f" font-family="sans-serif">gametes → zygote</text>
<line x1="240" y1="62" x2="290" y2="112" stroke="#55665f" stroke-width="1.8"/>
<circle cx="290" cy="112" r="3.5" fill="#55665f"/>
<text x="279.0" y="87.0" text-anchor="start" font-size="9.5" font-weight="normal" fill="#55665f" font-family="sans-serif">makes</text>
<line x1="290" y1="148" x2="240" y2="196" stroke="#55665f" stroke-width="1.8"/>
<circle cx="240" cy="196" r="3.5" fill="#55665f"/>
<text x="251.0" y="172.0" text-anchor="end" font-size="9.5" font-weight="normal" fill="#55665f" font-family="sans-serif">grow into</text>
<line x1="120" y1="196" x2="70" y2="148" stroke="#55665f" stroke-width="1.8"/>
<circle cx="70" cy="148" r="3.5" fill="#55665f"/>
<text x="81.0" y="172.0" text-anchor="end" font-size="9.5" font-weight="normal" fill="#55665f" font-family="sans-serif">makes</text>
<line x1="70" y1="112" x2="120" y2="62" stroke="#55665f" stroke-width="1.8"/>
<circle cx="120" cy="62" r="3.5" fill="#55665f"/>
<text x="109.0" y="87.0" text-anchor="start" font-size="9.5" font-weight="normal" fill="#55665f" font-family="sans-serif">fertilisation</text>
<text x="180" y="246" text-anchor="middle" font-size="9.5" font-weight="normal" fill="#55665f" font-family="sans-serif">moss: gametophyte dominant · fern, pine, maize: sporophyte dominant</text>
</svg>
